<?xml version="1.0" encoding="us-ascii" standalone="no"?><svg xmlns="http://www.w3.org/2000/svg" xmlns:xlink="http://www.w3.org/1999/xlink" contentStyleType="text/css" height="1282px" preserveAspectRatio="none" style="width:711px;height:1282px;background:#FFFFFF;" version="1.1" viewBox="0 0 711 1282" width="711px" zoomAndPan="magnify"><defs/><g><rect fill="#FFFFFF" height="14" style="stroke:#181818;stroke-width:1.0;" width="10" x="155" y="84.7988"/><rect fill="#FFFFFF" height="1072.0293" style="stroke:#181818;stroke-width:1.0;" width="10" x="250" y="152.4199"/><rect fill="#FFFFFF" height="162.2422" style="stroke:#181818;stroke-width:1.0;" width="10" x="255" y="189.7305"/><rect fill="#FFFFFF" height="29.3105" style="stroke:#181818;stroke-width:1.0;" width="10" x="255" y="466.9043"/><rect fill="#FFFFFF" height="683.9688" style="stroke:#181818;stroke-width:1.0;" width="10" x="255" y="540.4805"/><rect fill="#FFFFFF" height="162.2422" style="stroke:#181818;stroke-width:1.0;" width="10" x="260" y="577.791"/><rect fill="#FFFFFF" height="439.1055" style="stroke:#181818;stroke-width:1.0;" width="10" x="260" y="769.3438"/><rect fill="#FFFFFF" height="380.7949" style="stroke:#181818;stroke-width:1.0;" width="10" x="265" y="806.6543"/><rect fill="#FFFFFF" height="48.3105" style="stroke:#181818;stroke-width:1.0;" width="10" x="270" y="848.9648"/><rect fill="#FFFFFF" height="125.9316" style="stroke:#181818;stroke-width:1.0;" width="10" x="270" y="976.8965"/><rect fill="#FFFFFF" height="14" style="stroke:#181818;stroke-width:1.0;" width="10" x="526" y="224.041"/><rect fill="#FFFFFF" height="14" style="stroke:#181818;stroke-width:1.0;" width="10" x="526" y="381.2832"/><rect fill="#FFFFFF" height="14" style="stroke:#181818;stroke-width:1.0;" width="10" x="526" y="612.1016"/><rect fill="#FFFFFF" height="14" style="stroke:#181818;stroke-width:1.0;" width="10" x="526" y="1011.207"/><rect fill="#FFFFFF" height="14" style="stroke:#181818;stroke-width:1.0;" width="10" x="643.5" y="883.2754"/><rect fill="none" height="1102.6504" style="stroke:#000000;stroke-width:1.5;" width="694" x="10" y="113.7988"/><line style="stroke:#181818;stroke-width:0.5;stroke-dasharray:5.0,5.0;" x1="67" x2="67" y1="53.4883" y2="1233.4492"/><line style="stroke:#181818;stroke-width:0.5;stroke-dasharray:5.0,5.0;" x1="160" x2="160" y1="53.4883" y2="1233.4492"/><line style="stroke:#181818;stroke-width:0.5;stroke-dasharray:5.0,5.0;" x1="255" x2="255" y1="53.4883" y2="1233.4492"/><line style="stroke:#181818;stroke-width:0.5;stroke-dasharray:5.0,5.0;" x1="531" x2="531" y1="53.4883" y2="1233.4492"/><line style="stroke:#181818;stroke-width:0.5;stroke-dasharray:5.0,5.0;" x1="648" x2="648" y1="53.4883" y2="1233.4492"/><text fill="#000000" font-family="sans-serif" font-size="14" lengthAdjust="spacing" textLength="89" x="20" y="50.5352">scheduleOne</text><ellipse cx="67.5" cy="21" fill="#E2E2F0" rx="12" ry="12" style="stroke:#181818;stroke-width:0.5;"/><polygon fill="#181818" points="63.5,9,69.5,4,67.5,9,69.5,14,63.5,9" style="stroke:#181818;stroke-width:1.0;"/><text fill="#000000" font-family="sans-serif" font-size="14" lengthAdjust="spacing" textLength="89" x="20" y="1245.9844">scheduleOne</text><ellipse cx="67.5" cy="1264.9375" fill="#E2E2F0" rx="12" ry="12" style="stroke:#181818;stroke-width:0.5;"/><polygon fill="#181818" points="63.5,1252.9375,69.5,1247.9375,67.5,1252.9375,69.5,1257.9375,63.5,1252.9375" style="stroke:#181818;stroke-width:1.0;"/><path d="M130,27 L190,27 C195,27 195,40.2441 195,40.2441 C195,40.2441 195,53.4883 190,53.4883 L130,53.4883 C125,53.4883 125,40.2441 125,40.2441 C125,40.2441 125,27 130,27 " fill="#E2E2F0" style="stroke:#181818;stroke-width:0.5;"/><path d="M190,27 C185,27 185,40.2441 185,40.2441 C185,53.4883 190,53.4883 190,53.4883 " fill="none" style="stroke:#181818;stroke-width:0.5;"/><text fill="#000000" font-family="sans-serif" font-size="14" lengthAdjust="spacing" textLength="50" x="130" y="45.5352">avtiveQ</text><path d="M130,1232.4492 L190,1232.4492 C195,1232.4492 195,1245.6934 195,1245.6934 C195,1245.6934 195,1258.9375 190,1258.9375 L130,1258.9375 C125,1258.9375 125,1245.6934 125,1245.6934 C125,1245.6934 125,1232.4492 130,1232.4492 " fill="#E2E2F0" style="stroke:#181818;stroke-width:0.5;"/><path d="M190,1232.4492 C185,1232.4492 185,1245.6934 185,1245.6934 C185,1258.9375 190,1258.9375 190,1258.9375 " fill="none" style="stroke:#181818;stroke-width:0.5;"/><text fill="#000000" font-family="sans-serif" font-size="14" lengthAdjust="spacing" textLength="50" x="130" y="1250.9844">avtiveQ</text><text fill="#000000" font-family="sans-serif" font-size="14" lengthAdjust="spacing" textLength="94" x="205" y="50.5352">Coscheduling</text><ellipse cx="255" cy="21" fill="#E2E2F0" rx="12" ry="12" style="stroke:#181818;stroke-width:0.5;"/><polygon fill="#181818" points="251,9,257,4,255,9,257,14,251,9" style="stroke:#181818;stroke-width:1.0;"/><text fill="#000000" font-family="sans-serif" font-size="14" lengthAdjust="spacing" textLength="94" x="205" y="1245.9844">Coscheduling</text><ellipse cx="255" cy="1264.9375" fill="#E2E2F0" rx="12" ry="12" style="stroke:#181818;stroke-width:0.5;"/><polygon fill="#181818" points="251,1252.9375,257,1247.9375,255,1252.9375,257,1257.9375,251,1252.9375" style="stroke:#181818;stroke-width:1.0;"/><text fill="#000000" font-family="sans-serif" font-size="14" lengthAdjust="spacing" textLength="118" x="469" y="50.5352">SchedulerPlugins</text><ellipse cx="531" cy="21" fill="#E2E2F0" rx="12" ry="12" style="stroke:#181818;stroke-width:0.5;"/><polygon fill="#181818" points="527,9,533,4,531,9,533,14,527,9" style="stroke:#181818;stroke-width:1.0;"/><text fill="#000000" font-family="sans-serif" font-size="14" lengthAdjust="spacing" textLength="118" x="469" y="1245.9844">SchedulerPlugins</text><ellipse cx="531" cy="1264.9375" fill="#E2E2F0" rx="12" ry="12" style="stroke:#181818;stroke-width:0.5;"/><polygon fill="#181818" points="527,1252.9375,533,1247.9375,531,1252.9375,533,1257.9375,527,1252.9375" style="stroke:#181818;stroke-width:1.0;"/><text fill="#000000" font-family="sans-serif" font-size="14" lengthAdjust="spacing" textLength="85" x="603" y="50.5352">ElasticQuota</text><ellipse cx="648.5" cy="21" fill="#E2E2F0" rx="12" ry="12" style="stroke:#181818;stroke-width:0.5;"/><polygon fill="#181818" points="644.5,9,650.5,4,648.5,9,650.5,14,644.5,9" style="stroke:#181818;stroke-width:1.0;"/><text fill="#000000" font-family="sans-serif" font-size="14" lengthAdjust="spacing" textLength="85" x="603" y="1245.9844">ElasticQuota</text><ellipse cx="648.5" cy="1264.9375" fill="#E2E2F0" rx="12" ry="12" style="stroke:#181818;stroke-width:0.5;"/><polygon fill="#181818" points="644.5,1252.9375,650.5,1247.9375,648.5,1252.9375,650.5,1257.9375,644.5,1252.9375" style="stroke:#181818;stroke-width:1.0;"/><rect fill="#FFFFFF" height="14" style="stroke:#181818;stroke-width:1.0;" width="10" x="155" y="84.7988"/><rect fill="#FFFFFF" height="1072.0293" style="stroke:#181818;stroke-width:1.0;" width="10" x="250" y="152.4199"/><rect fill="#FFFFFF" height="162.2422" style="stroke:#181818;stroke-width:1.0;" width="10" x="255" y="189.7305"/><rect fill="#FFFFFF" height="29.3105" style="stroke:#181818;stroke-width:1.0;" width="10" x="255" y="466.9043"/><rect fill="#FFFFFF" height="683.9688" style="stroke:#181818;stroke-width:1.0;" width="10" x="255" y="540.4805"/><rect fill="#FFFFFF" height="162.2422" style="stroke:#181818;stroke-width:1.0;" width="10" x="260" y="577.791"/><rect fill="#FFFFFF" height="439.1055" style="stroke:#181818;stroke-width:1.0;" width="10" x="260" y="769.3438"/><rect fill="#FFFFFF" height="380.7949" style="stroke:#181818;stroke-width:1.0;" width="10" x="265" y="806.6543"/><rect fill="#FFFFFF" height="48.3105" style="stroke:#181818;stroke-width:1.0;" width="10" x="270" y="848.9648"/><rect fill="#FFFFFF" height="125.9316" style="stroke:#181818;stroke-width:1.0;" width="10" x="270" y="976.8965"/><rect fill="#FFFFFF" height="14" style="stroke:#181818;stroke-width:1.0;" width="10" x="526" y="224.041"/><rect fill="#FFFFFF" height="14" style="stroke:#181818;stroke-width:1.0;" width="10" x="526" y="381.2832"/><rect fill="#FFFFFF" height="14" style="stroke:#181818;stroke-width:1.0;" width="10" x="526" y="612.1016"/><rect fill="#FFFFFF" height="14" style="stroke:#181818;stroke-width:1.0;" width="10" x="526" y="1011.207"/><rect fill="#FFFFFF" height="14" style="stroke:#181818;stroke-width:1.0;" width="10" x="643.5" y="883.2754"/><polygon fill="#181818" points="143,80.7988,153,84.7988,143,88.7988,147,84.7988" style="stroke:#181818;stroke-width:1.0;"/><line style="stroke:#181818;stroke-width:1.0;" x1="67.5" x2="149" y1="84.7988" y2="84.7988"/><text fill="#000000" font-family="sans-serif" font-size="13" lengthAdjust="spacing" textLength="23" x="74.5" y="80.0566">Pop</text><polygon fill="#181818" points="78.5,94.7988,68.5,98.7988,78.5,102.7988,74.5,98.7988" style="stroke:#181818;stroke-width:1.0;"/><line style="stroke:#181818;stroke-width:1.0;" x1="72.5" x2="159" y1="98.7988" y2="98.7988"/><path d="M10,113.7988 L72,113.7988 L72,121.1094 L62,131.1094 L10,131.1094 L10,113.7988 " fill="#EEEEEE" style="stroke:#000000;stroke-width:1.5;"/><rect fill="none" height="1102.6504" style="stroke:#000000;stroke-width:1.5;" width="694" x="10" y="113.7988"/><text fill="#000000" font-family="sans-serif" font-size="13" font-weight="bold" lengthAdjust="spacing" textLength="17" x="25" y="127.3672">alt</text><text fill="#000000" font-family="sans-serif" font-size="11" font-weight="bold" lengthAdjust="spacing" textLength="110" x="87" y="126.4336">[resourceSufficient]</text><polygon fill="#181818" points="238,148.4199,248,152.4199,238,156.4199,242,152.4199" style="stroke:#181818;stroke-width:1.0;"/><line style="stroke:#181818;stroke-width:1.0;" x1="67.5" x2="244" y1="152.4199" y2="152.4199"/><text fill="#000000" font-family="sans-serif" font-size="13" lengthAdjust="spacing" textLength="82" x="74.5" y="147.6777">AfterPreFilter</text><line style="stroke:#181818;stroke-width:1.0;" x1="260" x2="307" y1="176.7305" y2="176.7305"/><line style="stroke:#181818;stroke-width:1.0;" x1="307" x2="307" y1="176.7305" y2="189.7305"/><line style="stroke:#181818;stroke-width:1.0;" x1="266" x2="307" y1="189.7305" y2="189.7305"/><polygon fill="#181818" points="276,185.7305,266,189.7305,276,193.7305,272,189.7305" style="stroke:#181818;stroke-width:1.0;"/><text fill="#000000" font-family="sans-serif" font-size="13" lengthAdjust="spacing" textLength="147" x="272" y="171.9883">PlanNodesForPodGroup</text><polygon fill="#181818" points="514,220.041,524,224.041,514,228.041,518,224.041" style="stroke:#181818;stroke-width:1.0;"/><line style="stroke:#181818;stroke-width:1.0;" x1="265" x2="520" y1="224.041" y2="224.041"/><text fill="#000000" font-family="sans-serif" font-size="13" lengthAdjust="spacing" textLength="168" x="272" y="219.2988">GetAllFeasibleNodeByFilter</text><polygon fill="#181818" points="276,234.041,266,238.041,276,242.041,272,238.041" style="stroke:#181818;stroke-width:1.0;"/><line style="stroke:#181818;stroke-width:1.0;" x1="270" x2="530" y1="238.041" y2="238.041"/><line style="stroke:#181818;stroke-width:1.0;" x1="265" x2="307" y1="267.3516" y2="267.3516"/><line style="stroke:#181818;stroke-width:1.0;" x1="307" x2="307" y1="267.3516" y2="280.3516"/><line style="stroke:#181818;stroke-width:1.0;" x1="266" x2="307" y1="280.3516" y2="280.3516"/><polygon fill="#181818" points="276,276.3516,266,280.3516,276,284.3516,272,280.3516" style="stroke:#181818;stroke-width:1.0;"/><text fill="#000000" font-family="sans-serif" font-size="13" lengthAdjust="spacing" textLength="153" x="272" y="262.6094">NetworkTopologyGather</text><line style="stroke:#181818;stroke-width:1.0;" x1="265" x2="307" y1="309.6621" y2="309.6621"/><line style="stroke:#181818;stroke-width:1.0;" x1="307" x2="307" y1="309.6621" y2="322.6621"/><line style="stroke:#181818;stroke-width:1.0;" x1="266" x2="307" y1="322.6621" y2="322.6621"/><polygon fill="#181818" points="276,318.6621,266,322.6621,276,326.6621,272,322.6621" style="stroke:#181818;stroke-width:1.0;"/><text fill="#000000" font-family="sans-serif" font-size="13" lengthAdjust="spacing" textLength="213" x="272" y="304.9199">RecordPlannedNodesForPodGroup</text><polygon fill="#181818" points="78.5,347.9727,68.5,351.9727,78.5,355.9727,74.5,351.9727" style="stroke:#181818;stroke-width:1.0;"/><line style="stroke:#181818;stroke-width:1.0;" x1="72.5" x2="249" y1="351.9727" y2="351.9727"/><text fill="#000000" font-family="sans-serif" font-size="13" lengthAdjust="spacing" textLength="82" x="84.5" y="347.2305">PlannedNode</text><polygon fill="#181818" points="514,377.2832,524,381.2832,514,385.2832,518,381.2832" style="stroke:#181818;stroke-width:1.0;"/><line style="stroke:#181818;stroke-width:1.0;" x1="67.5" x2="520" y1="381.2832" y2="381.2832"/><text fill="#000000" font-family="sans-serif" font-size="13" lengthAdjust="spacing" textLength="100" x="74.5" y="376.541">CheckThatNode</text><polygon fill="#181818" points="78.5,391.2832,68.5,395.2832,78.5,399.2832,74.5,395.2832" style="stroke:#181818;stroke-width:1.0;"/><line style="stroke:#181818;stroke-width:1.0;" x1="72.5" x2="530" y1="395.2832" y2="395.2832"/><line style="stroke:#181818;stroke-width:1.0;" x1="67.5" x2="109.5" y1="424.5938" y2="424.5938"/><line style="stroke:#181818;stroke-width:1.0;" x1="109.5" x2="109.5" y1="424.5938" y2="437.5938"/><line style="stroke:#181818;stroke-width:1.0;" x1="68.5" x2="109.5" y1="437.5938" y2="437.5938"/><polygon fill="#181818" points="78.5,433.5938,68.5,437.5938,78.5,441.5938,74.5,437.5938" style="stroke:#181818;stroke-width:1.0;"/><text fill="#000000" font-family="sans-serif" font-size="13" lengthAdjust="spacing" textLength="48" x="74.5" y="419.8516">Reserve</text><polygon fill="#181818" points="243,462.9043,253,466.9043,243,470.9043,247,466.9043" style="stroke:#181818;stroke-width:1.0;"/><line style="stroke:#181818;stroke-width:1.0;" x1="67.5" x2="249" y1="466.9043" y2="466.9043"/><text fill="#000000" font-family="sans-serif" font-size="13" lengthAdjust="spacing" textLength="40" x="74.5" y="462.1621">Permit</text><polygon fill="#181818" points="78.5,492.2148,68.5,496.2148,78.5,500.2148,74.5,496.2148" style="stroke:#181818;stroke-width:1.0;"/><line style="stroke:#181818;stroke-width:1.0;" x1="72.5" x2="249" y1="496.2148" y2="496.2148"/><text fill="#000000" font-family="sans-serif" font-size="13" lengthAdjust="spacing" textLength="77" x="84.5" y="491.4727">WaitOrAllow</text><line style="stroke:#000000;stroke-width:1.0;stroke-dasharray:2.0,2.0;" x1="10" x2="704" y1="505.2148" y2="505.2148"/><text fill="#000000" font-family="sans-serif" font-size="11" font-weight="bold" lengthAdjust="spacing" textLength="121" x="15" y="515.8496">[resourceInsufficient]</text><polygon fill="#181818" points="243,536.4805,253,540.4805,243,544.4805,247,540.4805" style="stroke:#181818;stroke-width:1.0;"/><line style="stroke:#181818;stroke-width:1.0;" x1="67.5" x2="249" y1="540.4805" y2="540.4805"/><text fill="#000000" font-family="sans-serif" font-size="13" lengthAdjust="spacing" textLength="82" x="74.5" y="535.7383">AfterPreFilter</text><line style="stroke:#181818;stroke-width:1.0;" x1="265" x2="312" y1="564.791" y2="564.791"/><line style="stroke:#181818;stroke-width:1.0;" x1="312" x2="312" y1="564.791" y2="577.791"/><line style="stroke:#181818;stroke-width:1.0;" x1="271" x2="312" y1="577.791" y2="577.791"/><polygon fill="#181818" points="281,573.791,271,577.791,281,581.791,277,577.791" style="stroke:#181818;stroke-width:1.0;"/><text fill="#000000" font-family="sans-serif" font-size="13" lengthAdjust="spacing" textLength="147" x="277" y="560.0488">PlanNodesForPodGroup</text><polygon fill="#181818" points="514,608.1016,524,612.1016,514,616.1016,518,612.1016" style="stroke:#181818;stroke-width:1.0;"/><line style="stroke:#181818;stroke-width:1.0;" x1="270" x2="520" y1="612.1016" y2="612.1016"/><text fill="#000000" font-family="sans-serif" font-size="13" lengthAdjust="spacing" textLength="168" x="277" y="607.3594">GetAllFeasibleNodeByFilter</text><polygon fill="#181818" points="281,622.1016,271,626.1016,281,630.1016,277,626.1016" style="stroke:#181818;stroke-width:1.0;"/><line style="stroke:#181818;stroke-width:1.0;" x1="275" x2="530" y1="626.1016" y2="626.1016"/><line style="stroke:#181818;stroke-width:1.0;" x1="270" x2="312" y1="655.4121" y2="655.4121"/><line style="stroke:#181818;stroke-width:1.0;" x1="312" x2="312" y1="655.4121" y2="668.4121"/><line style="stroke:#181818;stroke-width:1.0;" x1="271" x2="312" y1="668.4121" y2="668.4121"/><polygon fill="#181818" points="281,664.4121,271,668.4121,281,672.4121,277,668.4121" style="stroke:#181818;stroke-width:1.0;"/><text fill="#000000" font-family="sans-serif" font-size="13" lengthAdjust="spacing" textLength="153" x="277" y="650.6699">NetworkTopologyGather</text><line style="stroke:#181818;stroke-width:1.0;" x1="270" x2="312" y1="697.7227" y2="697.7227"/><line style="stroke:#181818;stroke-width:1.0;" x1="312" x2="312" y1="697.7227" y2="710.7227"/><line style="stroke:#181818;stroke-width:1.0;" x1="271" x2="312" y1="710.7227" y2="710.7227"/><polygon fill="#181818" points="281,706.7227,271,710.7227,281,714.7227,277,710.7227" style="stroke:#181818;stroke-width:1.0;"/><text fill="#000000" font-family="sans-serif" font-size="13" lengthAdjust="spacing" textLength="152" x="277" y="692.9805">RecordNodeFailedStatus</text><polygon fill="#181818" points="78.5,736.0332,68.5,740.0332,78.5,744.0332,74.5,740.0332" style="stroke:#181818;stroke-width:1.0;"/><line style="stroke:#181818;stroke-width:1.0;" x1="72.5" x2="254" y1="740.0332" y2="740.0332"/><text fill="#000000" font-family="sans-serif" font-size="13" lengthAdjust="spacing" textLength="37" x="84.5" y="735.291">Failed</text><polygon fill="#181818" points="248,765.3438,258,769.3438,248,773.3438,252,769.3438" style="stroke:#181818;stroke-width:1.0;"/><line style="stroke:#181818;stroke-width:1.0;" x1="67.5" x2="254" y1="769.3438" y2="769.3438"/><text fill="#000000" font-family="sans-serif" font-size="13" lengthAdjust="spacing" textLength="59" x="74.5" y="764.6016">PostFilter</text><line style="stroke:#181818;stroke-width:1.0;" x1="270" x2="317" y1="793.6543" y2="793.6543"/><line style="stroke:#181818;stroke-width:1.0;" x1="317" x2="317" y1="793.6543" y2="806.6543"/><line style="stroke:#181818;stroke-width:1.0;" x1="276" x2="317" y1="806.6543" y2="806.6543"/><polygon fill="#181818" points="286,802.6543,276,806.6543,286,810.6543,282,806.6543" style="stroke:#181818;stroke-width:1.0;"/><text fill="#000000" font-family="sans-serif" font-size="13" lengthAdjust="spacing" textLength="51" x="282" y="788.9121">Preempt</text><line style="stroke:#181818;stroke-width:1.0;" x1="275" x2="322" y1="835.9648" y2="835.9648"/><line style="stroke:#181818;stroke-width:1.0;" x1="322" x2="322" y1="835.9648" y2="848.9648"/><line style="stroke:#181818;stroke-width:1.0;" x1="281" x2="322" y1="848.9648" y2="848.9648"/><polygon fill="#181818" points="291,844.9648,281,848.9648,291,852.9648,287,848.9648" style="stroke:#181818;stroke-width:1.0;"/><text fill="#000000" font-family="sans-serif" font-size="13" lengthAdjust="spacing" textLength="158" x="287" y="831.2227">RemoveAllPossibleVictim</text><polygon fill="#181818" points="631.5,879.2754,641.5,883.2754,631.5,887.2754,635.5,883.2754" style="stroke:#181818;stroke-width:1.0;"/><line style="stroke:#181818;stroke-width:1.0;" x1="280" x2="637.5" y1="883.2754" y2="883.2754"/><text fill="#000000" font-family="sans-serif" font-size="13" lengthAdjust="spacing" textLength="183" x="287" y="878.5332">IsPossible(Preemptor, Victim)</text><polygon fill="#181818" points="286,893.2754,276,897.2754,286,901.2754,282,897.2754" style="stroke:#181818;stroke-width:1.0;"/><line style="stroke:#181818;stroke-width:1.0;" x1="280" x2="647.5" y1="897.2754" y2="897.2754"/><line style="stroke:#181818;stroke-width:1.0;" x1="275" x2="317" y1="926.5859" y2="926.5859"/><line style="stroke:#181818;stroke-width:1.0;" x1="317" x2="317" y1="926.5859" y2="939.5859"/><line style="stroke:#181818;stroke-width:1.0;" x1="276" x2="317" y1="939.5859" y2="939.5859"/><polygon fill="#181818" points="286,935.5859,276,939.5859,286,943.5859,282,939.5859" style="stroke:#181818;stroke-width:1.0;"/><text fill="#000000" font-family="sans-serif" font-size="13" lengthAdjust="spacing" textLength="191" x="282" y="921.8438">CalculateNodePreemotionCost</text><line style="stroke:#181818;stroke-width:1.0;" x1="275" x2="322" y1="963.8965" y2="963.8965"/><line style="stroke:#181818;stroke-width:1.0;" x1="322" x2="322" y1="963.8965" y2="976.8965"/><line style="stroke:#181818;stroke-width:1.0;" x1="281" x2="322" y1="976.8965" y2="976.8965"/><polygon fill="#181818" points="291,972.8965,281,976.8965,291,980.8965,287,976.8965" style="stroke:#181818;stroke-width:1.0;"/><text fill="#000000" font-family="sans-serif" font-size="13" lengthAdjust="spacing" textLength="237" x="287" y="959.1543">PlanNodesForPodGroupWithNodeCost</text><polygon fill="#181818" points="514,1007.207,524,1011.207,514,1015.207,518,1011.207" style="stroke:#181818;stroke-width:1.0;"/><line style="stroke:#181818;stroke-width:1.0;" x1="280" x2="520" y1="1011.207" y2="1011.207"/><text fill="#000000" font-family="sans-serif" font-size="13" lengthAdjust="spacing" textLength="168" x="287" y="1006.4648">GetAllFeasibleNodeByFilter</text><polygon fill="#181818" points="291,1021.207,281,1025.207,291,1029.207,287,1025.207" style="stroke:#181818;stroke-width:1.0;"/><line style="stroke:#181818;stroke-width:1.0;" x1="285" x2="530" y1="1025.207" y2="1025.207"/><line style="stroke:#181818;stroke-width:1.0;" x1="280" x2="322" y1="1054.5176" y2="1054.5176"/><line style="stroke:#181818;stroke-width:1.0;" x1="322" x2="322" y1="1054.5176" y2="1067.5176"/><line style="stroke:#181818;stroke-width:1.0;" x1="281" x2="322" y1="1067.5176" y2="1067.5176"/><polygon fill="#181818" points="291,1063.5176,281,1067.5176,291,1071.5176,287,1067.5176" style="stroke:#181818;stroke-width:1.0;"/><text fill="#000000" font-family="sans-serif" font-size="13" lengthAdjust="spacing" textLength="153" x="287" y="1049.7754">NetworkTopologyGather</text><line style="stroke:#181818;stroke-width:1.0;" x1="280" x2="322" y1="1101.8281" y2="1101.8281"/><line style="stroke:#181818;stroke-width:1.0;" x1="322" x2="322" y1="1101.8281" y2="1114.8281"/><line style="stroke:#181818;stroke-width:1.0;" x1="275" x2="322" y1="1114.8281" y2="1114.8281"/><polygon fill="#181818" points="285,1110.8281,275,1114.8281,285,1118.8281,281,1114.8281" style="stroke:#181818;stroke-width:1.0;"/><text fill="#000000" font-family="sans-serif" font-size="13" lengthAdjust="spacing" textLength="158" x="287" y="1097.0859">PreemptionSuccessOrFail</text><line style="stroke:#181818;stroke-width:1.0;" x1="275" x2="317" y1="1139.1387" y2="1139.1387"/><line style="stroke:#181818;stroke-width:1.0;" x1="317" x2="317" y1="1139.1387" y2="1152.1387"/><line style="stroke:#181818;stroke-width:1.0;" x1="276" x2="317" y1="1152.1387" y2="1152.1387"/><polygon fill="#181818" points="286,1148.1387,276,1152.1387,286,1156.1387,282,1152.1387" style="stroke:#181818;stroke-width:1.0;"/><text fill="#000000" font-family="sans-serif" font-size="13" lengthAdjust="spacing" textLength="135" x="282" y="1134.3965">GenerateNodeVictims</text><line style="stroke:#181818;stroke-width:1.0;" x1="275" x2="317" y1="1186.4492" y2="1186.4492"/><line style="stroke:#181818;stroke-width:1.0;" x1="317" x2="317" y1="1186.4492" y2="1199.4492"/><line style="stroke:#181818;stroke-width:1.0;" x1="270" x2="317" y1="1199.4492" y2="1199.4492"/><polygon fill="#181818" points="280,1195.4492,270,1199.4492,280,1203.4492,276,1199.4492" style="stroke:#181818;stroke-width:1.0;"/><text fill="#000000" font-family="sans-serif" font-size="13" lengthAdjust="spacing" textLength="116" x="282" y="1181.707">PrepareCandidates</text><polygon fill="#181818" points="78.5,1204.4492,68.5,1208.4492,78.5,1212.4492,74.5,1208.4492" style="stroke:#181818;stroke-width:1.0;"/><line style="stroke:#181818;stroke-width:1.0;" x1="72.5" x2="254" y1="1208.4492" y2="1208.4492"/><!--SRC=[xLPDRzim3BtxL-Yu0TiVo6505on1ButJ5EjPanXRg2Aw4fMY_twIxJgAuu-ck_Imd2oAV7fy9AK8D6HHCoTAa5x3nW3ZBbrcpnvyC1v97M6RR2fJREDM9bgC9Pvseb_1JP5hNoZJkUnQNDlONNhMcwrp_gMv8oMs7eb7n-VuqG9cAU7lF_gS5Yp7AkCYSEO45unxwmIWpbZ2Q6J6DJ4B3hqLiFFxlH8A36Ki_7gKJkalsCsUGduMLag7ZzgxEoAHATfFopv8hhcvGmbkXJP7kRRegr6e0Qo-q0ks1hhHUWNSgJyQ8lRFro6A5oLAq-rgUKQtThaKyWGna-mTq0lQfmUiK6FnkkPK1bOpGVSWqCgeam4vADMm8g5YZRnjM9zyNzVXvak4NPOWdXvAJXtQzLgcv6RLd61L9tSF3kmHvleq1tjGT4L_dXtoo1LjREWeV9bG4BI3ReHkZVi_H9znY68UAwuqo1rnycwkzetlHDdZJZRRV-Zetyfh0GxLT0TdymeSy0YXg85ENTJVAa0Thg2KF5KBTklUSBwqzD1-OmtcrtFGz8cB6ybwkZFwWUCr64zxoRNmEeJ4sjTCaHIQyAmtUdvWiXuLbT7MOLntgtoE8Vl8ZBshIuEuEoy4EBUnSNxcdfrnm3KOi6tbciPoynGgRc79ZLGoHBPtoNlx9lsxD77L6_aN]--></g></svg>