<?xml version="1.0" encoding="us-ascii" standalone="no"?><svg xmlns="http://www.w3.org/2000/svg" xmlns:xlink="http://www.w3.org/1999/xlink" contentStyleType="text/css" height="415px" preserveAspectRatio="none" style="width:488px;height:415px;background:#FFFFFF;" version="1.1" viewBox="0 0 488 415" width="488px" zoomAndPan="magnify"><defs/><g><rect fill="#FFFFFF" height="56.3105" style="stroke:#181818;stroke-width:1.0;" width="10" x="244.5" y="84.7988"/><rect fill="#FFFFFF" height="29.3105" style="stroke:#181818;stroke-width:1.0;" width="10" x="244.5" y="194.7305"/><rect fill="#FFFFFF" height="29.3105" style="stroke:#181818;stroke-width:1.0;" width="10" x="244.5" y="311.6172"/><rect fill="#FFFFFF" height="14" style="stroke:#181818;stroke-width:1.0;" width="10" x="404.5" y="253.3516"/><rect fill="none" height="192.8184" style="stroke:#000000;stroke-width:1.5;" width="471.5" x="10" y="156.1094"/><line style="stroke:#181818;stroke-width:0.5;stroke-dasharray:5.0,5.0;" x1="67" x2="67" y1="53.4883" y2="365.9277"/><line style="stroke:#181818;stroke-width:0.5;stroke-dasharray:5.0,5.0;" x1="249.5" x2="249.5" y1="53.4883" y2="365.9277"/><line style="stroke:#181818;stroke-width:0.5;stroke-dasharray:5.0,5.0;" x1="409.5" x2="409.5" y1="53.4883" y2="365.9277"/><text fill="#000000" font-family="sans-serif" font-size="14" lengthAdjust="spacing" textLength="89" x="20" y="50.5352">scheduleOne</text><ellipse cx="67.5" cy="21" fill="#E2E2F0" rx="12" ry="12" style="stroke:#181818;stroke-width:0.5;"/><polygon fill="#181818" points="63.5,9,69.5,4,67.5,9,69.5,14,63.5,9" style="stroke:#181818;stroke-width:1.0;"/><text fill="#000000" font-family="sans-serif" font-size="14" lengthAdjust="spacing" textLength="89" x="20" y="378.4629">scheduleOne</text><ellipse cx="67.5" cy="397.416" fill="#E2E2F0" rx="12" ry="12" style="stroke:#181818;stroke-width:0.5;"/><polygon fill="#181818" points="63.5,385.416,69.5,380.416,67.5,385.416,69.5,390.416,63.5,385.416" style="stroke:#181818;stroke-width:1.0;"/><text fill="#000000" font-family="sans-serif" font-size="14" lengthAdjust="spacing" textLength="94" x="199.5" y="50.5352">Coscheduling</text><ellipse cx="249.5" cy="21" fill="#E2E2F0" rx="12" ry="12" style="stroke:#181818;stroke-width:0.5;"/><polygon fill="#181818" points="245.5,9,251.5,4,249.5,9,251.5,14,245.5,9" style="stroke:#181818;stroke-width:1.0;"/><text fill="#000000" font-family="sans-serif" font-size="14" lengthAdjust="spacing" textLength="94" x="199.5" y="378.4629">Coscheduling</text><ellipse cx="249.5" cy="397.416" fill="#E2E2F0" rx="12" ry="12" style="stroke:#181818;stroke-width:0.5;"/><polygon fill="#181818" points="245.5,385.416,251.5,380.416,249.5,385.416,251.5,390.416,245.5,385.416" style="stroke:#181818;stroke-width:1.0;"/><text fill="#000000" font-family="sans-serif" font-size="14" lengthAdjust="spacing" textLength="118" x="347.5" y="50.5352">SchedulerPlugins</text><ellipse cx="409.5" cy="21" fill="#E2E2F0" rx="12" ry="12" style="stroke:#181818;stroke-width:0.5;"/><polygon fill="#181818" points="405.5,9,411.5,4,409.5,9,411.5,14,405.5,9" style="stroke:#181818;stroke-width:1.0;"/><text fill="#000000" font-family="sans-serif" font-size="14" lengthAdjust="spacing" textLength="118" x="347.5" y="378.4629">SchedulerPlugins</text><ellipse cx="409.5" cy="397.416" fill="#E2E2F0" rx="12" ry="12" style="stroke:#181818;stroke-width:0.5;"/><polygon fill="#181818" points="405.5,385.416,411.5,380.416,409.5,385.416,411.5,390.416,405.5,385.416" style="stroke:#181818;stroke-width:1.0;"/><rect fill="#FFFFFF" height="56.3105" style="stroke:#181818;stroke-width:1.0;" width="10" x="244.5" y="84.7988"/><rect fill="#FFFFFF" height="29.3105" style="stroke:#181818;stroke-width:1.0;" width="10" x="244.5" y="194.7305"/><rect fill="#FFFFFF" height="29.3105" style="stroke:#181818;stroke-width:1.0;" width="10" x="244.5" y="311.6172"/><rect fill="#FFFFFF" height="14" style="stroke:#181818;stroke-width:1.0;" width="10" x="404.5" y="253.3516"/><polygon fill="#181818" points="232.5,80.7988,242.5,84.7988,232.5,88.7988,236.5,84.7988" style="stroke:#181818;stroke-width:1.0;"/><line style="stroke:#181818;stroke-width:1.0;" x1="67.5" x2="238.5" y1="84.7988" y2="84.7988"/><text fill="#000000" font-family="sans-serif" font-size="13" lengthAdjust="spacing" textLength="53" x="74.5" y="80.0566">NextPod</text><line style="stroke:#181818;stroke-width:1.0;" x1="254.5" x2="296.5" y1="114.1094" y2="114.1094"/><line style="stroke:#181818;stroke-width:1.0;" x1="296.5" x2="296.5" y1="114.1094" y2="127.1094"/><line style="stroke:#181818;stroke-width:1.0;" x1="255.5" x2="296.5" y1="127.1094" y2="127.1094"/><polygon fill="#181818" points="265.5,123.1094,255.5,127.1094,265.5,131.1094,261.5,127.1094" style="stroke:#181818;stroke-width:1.0;"/><text fill="#000000" font-family="sans-serif" font-size="13" lengthAdjust="spacing" textLength="136" x="261.5" y="109.3672">GroupPodByPodGroup</text><polygon fill="#181818" points="78.5,137.1094,68.5,141.1094,78.5,145.1094,74.5,141.1094" style="stroke:#181818;stroke-width:1.0;"/><line style="stroke:#181818;stroke-width:1.0;" x1="72.5" x2="248.5" y1="141.1094" y2="141.1094"/><path d="M10,156.1094 L72,156.1094 L72,163.4199 L62,173.4199 L10,173.4199 L10,156.1094 " fill="#EEEEEE" style="stroke:#000000;stroke-width:1.5;"/><rect fill="none" height="192.8184" style="stroke:#000000;stroke-width:1.5;" width="471.5" x="10" y="156.1094"/><text fill="#000000" font-family="sans-serif" font-size="13" font-weight="bold" lengthAdjust="spacing" textLength="17" x="25" y="169.6777">alt</text><text fill="#000000" font-family="sans-serif" font-size="11" font-weight="bold" lengthAdjust="spacing" textLength="98" x="87" y="168.7441">[FirstPodSucceed]</text><polygon fill="#181818" points="232.5,190.7305,242.5,194.7305,232.5,198.7305,236.5,194.7305" style="stroke:#181818;stroke-width:1.0;"/><line style="stroke:#181818;stroke-width:1.0;" x1="67.5" x2="238.5" y1="194.7305" y2="194.7305"/><text fill="#000000" font-family="sans-serif" font-size="13" lengthAdjust="spacing" textLength="51" x="74.5" y="189.9883">PreFilter</text><polygon fill="#181818" points="78.5,220.041,68.5,224.041,78.5,228.041,74.5,224.041" style="stroke:#181818;stroke-width:1.0;"/><line style="stroke:#181818;stroke-width:1.0;" x1="72.5" x2="248.5" y1="224.041" y2="224.041"/><text fill="#000000" font-family="sans-serif" font-size="13" lengthAdjust="spacing" textLength="82" x="84.5" y="219.2988">PlannedNode</text><polygon fill="#181818" points="392.5,249.3516,402.5,253.3516,392.5,257.3516,396.5,253.3516" style="stroke:#181818;stroke-width:1.0;"/><line style="stroke:#181818;stroke-width:1.0;" x1="67.5" x2="398.5" y1="253.3516" y2="253.3516"/><text fill="#000000" font-family="sans-serif" font-size="13" lengthAdjust="spacing" textLength="100" x="74.5" y="248.6094">CheckThatNode</text><polygon fill="#181818" points="78.5,263.3516,68.5,267.3516,78.5,271.3516,74.5,267.3516" style="stroke:#181818;stroke-width:1.0;"/><line style="stroke:#181818;stroke-width:1.0;" x1="72.5" x2="408.5" y1="267.3516" y2="267.3516"/><line style="stroke:#000000;stroke-width:1.0;stroke-dasharray:2.0,2.0;" x1="10" x2="481.5" y1="276.3516" y2="276.3516"/><text fill="#000000" font-family="sans-serif" font-size="11" font-weight="bold" lengthAdjust="spacing" textLength="87" x="15" y="286.9863">[FirstPodFailed]</text><polygon fill="#181818" points="232.5,307.6172,242.5,311.6172,232.5,315.6172,236.5,311.6172" style="stroke:#181818;stroke-width:1.0;"/><line style="stroke:#181818;stroke-width:1.0;" x1="67.5" x2="238.5" y1="311.6172" y2="311.6172"/><text fill="#000000" font-family="sans-serif" font-size="13" lengthAdjust="spacing" textLength="51" x="74.5" y="306.875">PreFilter</text><polygon fill="#181818" points="78.5,336.9277,68.5,340.9277,78.5,344.9277,74.5,340.9277" style="stroke:#181818;stroke-width:1.0;"/><line style="stroke:#181818;stroke-width:1.0;" x1="72.5" x2="248.5" y1="340.9277" y2="340.9277"/><text fill="#000000" font-family="sans-serif" font-size="13" lengthAdjust="spacing" textLength="153" x="84.5" y="336.1855">FailWithRecordedReason</text><!--SRC=[lP71RiCW38RlF0Kli1V8OOTMocvTr4xgsSA_4bHaAY3LzlPBiemXclLO3WXRlp__sCPB2jxfQ0RmwF0kq1JBK9bLilThrae_QtgIldDZRoLBJcjP-Cd74lMRKwhizV9QS1fzm6VgF2iooTueeMpozwohte8VhrFPxckwbg0IbzzXRC6L8fTqQqES-vz6Om1MUZeFt7O1hNK9OH5kOUVylrOcW2CHyC4p5kcsjmqNzL0RlHzWBXy3fGpBgBiDbC2ygifRxUSE0XUH1zQITK-OrzpcRDDmXF61mKTGzF9WT13-1W00]--></g></svg>