<?xml version="1.0" encoding="us-ascii" standalone="no"?><svg xmlns="http://www.w3.org/2000/svg" xmlns:xlink="http://www.w3.org/1999/xlink" contentStyleType="text/css" height="1197px" preserveAspectRatio="none" style="width:732px;height:1197px;background:#FFFFFF;" version="1.1" viewBox="0 0 732 1197" width="732px" zoomAndPan="magnify"><defs/><g><rect fill="#FFFFFF" height="14" style="stroke:#181818;stroke-width:1.0;" width="10" x="176.5" y="84.7988"/><rect fill="#FFFFFF" height="986.4082" style="stroke:#181818;stroke-width:1.0;" width="10" x="271.5" y="152.4199"/><rect fill="#FFFFFF" height="162.2422" style="stroke:#181818;stroke-width:1.0;" width="10" x="276.5" y="189.7305"/><rect fill="#FFFFFF" height="29.3105" style="stroke:#181818;stroke-width:1.0;" width="10" x="276.5" y="465.9043"/><rect fill="#FFFFFF" height="599.3477" style="stroke:#181818;stroke-width:1.0;" width="10" x="276.5" y="539.4805"/><rect fill="#FFFFFF" height="162.2422" style="stroke:#181818;stroke-width:1.0;" width="10" x="281.5" y="576.791"/><rect fill="#FFFFFF" height="354.4844" style="stroke:#181818;stroke-width:1.0;" width="10" x="281.5" y="768.3438"/><rect fill="#FFFFFF" height="296.1738" style="stroke:#181818;stroke-width:1.0;" width="10" x="286.5" y="805.6543"/><rect fill="#FFFFFF" height="48.3105" style="stroke:#181818;stroke-width:1.0;" width="10" x="291.5" y="975.8965"/><rect fill="#FFFFFF" height="14" style="stroke:#181818;stroke-width:1.0;" width="10" x="547.5" y="224.041"/><rect fill="#FFFFFF" height="14" style="stroke:#181818;stroke-width:1.0;" width="10" x="547.5" y="611.1016"/><rect fill="#FFFFFF" height="14" style="stroke:#181818;stroke-width:1.0;" width="10" x="547.5" y="1010.207"/><rect fill="#FFFFFF" height="14" style="stroke:#181818;stroke-width:1.0;" width="10" x="665" y="839.9648"/><rect fill="none" height="1017.0293" style="stroke:#000000;stroke-width:1.5;" width="715.5" x="10" y="113.7988"/><line style="stroke:#181818;stroke-width:0.5;stroke-dasharray:5.0,5.0;" x1="67" x2="67" y1="53.4883" y2="1147.8281"/><line style="stroke:#181818;stroke-width:0.5;stroke-dasharray:5.0,5.0;" x1="181.5" x2="181.5" y1="53.4883" y2="1147.8281"/><line style="stroke:#181818;stroke-width:0.5;stroke-dasharray:5.0,5.0;" x1="276.5" x2="276.5" y1="53.4883" y2="1147.8281"/><line style="stroke:#181818;stroke-width:0.5;stroke-dasharray:5.0,5.0;" x1="552.5" x2="552.5" y1="53.4883" y2="1147.8281"/><line style="stroke:#181818;stroke-width:0.5;stroke-dasharray:5.0,5.0;" x1="669.5" x2="669.5" y1="53.4883" y2="1147.8281"/><text fill="#000000" font-family="sans-serif" font-size="14" lengthAdjust="spacing" textLength="89" x="20" y="50.5352">scheduleOne</text><ellipse cx="67.5" cy="21" fill="#E2E2F0" rx="12" ry="12" style="stroke:#181818;stroke-width:0.5;"/><polygon fill="#181818" points="63.5,9,69.5,4,67.5,9,69.5,14,63.5,9" style="stroke:#181818;stroke-width:1.0;"/><text fill="#000000" font-family="sans-serif" font-size="14" lengthAdjust="spacing" textLength="89" x="20" y="1160.3633">scheduleOne</text><ellipse cx="67.5" cy="1179.3164" fill="#E2E2F0" rx="12" ry="12" style="stroke:#181818;stroke-width:0.5;"/><polygon fill="#181818" points="63.5,1167.3164,69.5,1162.3164,67.5,1167.3164,69.5,1172.3164,63.5,1167.3164" style="stroke:#181818;stroke-width:1.0;"/><path d="M151.5,27 L211.5,27 C216.5,27 216.5,40.2441 216.5,40.2441 C216.5,40.2441 216.5,53.4883 211.5,53.4883 L151.5,53.4883 C146.5,53.4883 146.5,40.2441 146.5,40.2441 C146.5,40.2441 146.5,27 151.5,27 " fill="#E2E2F0" style="stroke:#181818;stroke-width:0.5;"/><path d="M211.5,27 C206.5,27 206.5,40.2441 206.5,40.2441 C206.5,53.4883 211.5,53.4883 211.5,53.4883 " fill="none" style="stroke:#181818;stroke-width:0.5;"/><text fill="#000000" font-family="sans-serif" font-size="14" lengthAdjust="spacing" textLength="50" x="151.5" y="45.5352">avtiveQ</text><path d="M151.5,1146.8281 L211.5,1146.8281 C216.5,1146.8281 216.5,1160.0723 216.5,1160.0723 C216.5,1160.0723 216.5,1173.3164 211.5,1173.3164 L151.5,1173.3164 C146.5,1173.3164 146.5,1160.0723 146.5,1160.0723 C146.5,1160.0723 146.5,1146.8281 151.5,1146.8281 " fill="#E2E2F0" style="stroke:#181818;stroke-width:0.5;"/><path d="M211.5,1146.8281 C206.5,1146.8281 206.5,1160.0723 206.5,1160.0723 C206.5,1173.3164 211.5,1173.3164 211.5,1173.3164 " fill="none" style="stroke:#181818;stroke-width:0.5;"/><text fill="#000000" font-family="sans-serif" font-size="14" lengthAdjust="spacing" textLength="50" x="151.5" y="1165.3633">avtiveQ</text><text fill="#000000" font-family="sans-serif" font-size="14" lengthAdjust="spacing" textLength="94" x="226.5" y="50.5352">Coscheduling</text><ellipse cx="276.5" cy="21" fill="#E2E2F0" rx="12" ry="12" style="stroke:#181818;stroke-width:0.5;"/><polygon fill="#181818" points="272.5,9,278.5,4,276.5,9,278.5,14,272.5,9" style="stroke:#181818;stroke-width:1.0;"/><text fill="#000000" font-family="sans-serif" font-size="14" lengthAdjust="spacing" textLength="94" x="226.5" y="1160.3633">Coscheduling</text><ellipse cx="276.5" cy="1179.3164" fill="#E2E2F0" rx="12" ry="12" style="stroke:#181818;stroke-width:0.5;"/><polygon fill="#181818" points="272.5,1167.3164,278.5,1162.3164,276.5,1167.3164,278.5,1172.3164,272.5,1167.3164" style="stroke:#181818;stroke-width:1.0;"/><text fill="#000000" font-family="sans-serif" font-size="14" lengthAdjust="spacing" textLength="118" x="490.5" y="50.5352">SchedulerPlugins</text><ellipse cx="552.5" cy="21" fill="#E2E2F0" rx="12" ry="12" style="stroke:#181818;stroke-width:0.5;"/><polygon fill="#181818" points="548.5,9,554.5,4,552.5,9,554.5,14,548.5,9" style="stroke:#181818;stroke-width:1.0;"/><text fill="#000000" font-family="sans-serif" font-size="14" lengthAdjust="spacing" textLength="118" x="490.5" y="1160.3633">SchedulerPlugins</text><ellipse cx="552.5" cy="1179.3164" fill="#E2E2F0" rx="12" ry="12" style="stroke:#181818;stroke-width:0.5;"/><polygon fill="#181818" points="548.5,1167.3164,554.5,1162.3164,552.5,1167.3164,554.5,1172.3164,548.5,1167.3164" style="stroke:#181818;stroke-width:1.0;"/><text fill="#000000" font-family="sans-serif" font-size="14" lengthAdjust="spacing" textLength="85" x="624.5" y="50.5352">ElasticQuota</text><ellipse cx="670" cy="21" fill="#E2E2F0" rx="12" ry="12" style="stroke:#181818;stroke-width:0.5;"/><polygon fill="#181818" points="666,9,672,4,670,9,672,14,666,9" style="stroke:#181818;stroke-width:1.0;"/><text fill="#000000" font-family="sans-serif" font-size="14" lengthAdjust="spacing" textLength="85" x="624.5" y="1160.3633">ElasticQuota</text><ellipse cx="670" cy="1179.3164" fill="#E2E2F0" rx="12" ry="12" style="stroke:#181818;stroke-width:0.5;"/><polygon fill="#181818" points="666,1167.3164,672,1162.3164,670,1167.3164,672,1172.3164,666,1167.3164" style="stroke:#181818;stroke-width:1.0;"/><rect fill="#FFFFFF" height="14" style="stroke:#181818;stroke-width:1.0;" width="10" x="176.5" y="84.7988"/><rect fill="#FFFFFF" height="986.4082" style="stroke:#181818;stroke-width:1.0;" width="10" x="271.5" y="152.4199"/><rect fill="#FFFFFF" height="162.2422" style="stroke:#181818;stroke-width:1.0;" width="10" x="276.5" y="189.7305"/><rect fill="#FFFFFF" height="29.3105" style="stroke:#181818;stroke-width:1.0;" width="10" x="276.5" y="465.9043"/><rect fill="#FFFFFF" height="599.3477" style="stroke:#181818;stroke-width:1.0;" width="10" x="276.5" y="539.4805"/><rect fill="#FFFFFF" height="162.2422" style="stroke:#181818;stroke-width:1.0;" width="10" x="281.5" y="576.791"/><rect fill="#FFFFFF" height="354.4844" style="stroke:#181818;stroke-width:1.0;" width="10" x="281.5" y="768.3438"/><rect fill="#FFFFFF" height="296.1738" style="stroke:#181818;stroke-width:1.0;" width="10" x="286.5" y="805.6543"/><rect fill="#FFFFFF" height="48.3105" style="stroke:#181818;stroke-width:1.0;" width="10" x="291.5" y="975.8965"/><rect fill="#FFFFFF" height="14" style="stroke:#181818;stroke-width:1.0;" width="10" x="547.5" y="224.041"/><rect fill="#FFFFFF" height="14" style="stroke:#181818;stroke-width:1.0;" width="10" x="547.5" y="611.1016"/><rect fill="#FFFFFF" height="14" style="stroke:#181818;stroke-width:1.0;" width="10" x="547.5" y="1010.207"/><rect fill="#FFFFFF" height="14" style="stroke:#181818;stroke-width:1.0;" width="10" x="665" y="839.9648"/><polygon fill="#181818" points="164.5,80.7988,174.5,84.7988,164.5,88.7988,168.5,84.7988" style="stroke:#181818;stroke-width:1.0;"/><line style="stroke:#181818;stroke-width:1.0;" x1="67.5" x2="170.5" y1="84.7988" y2="84.7988"/><text fill="#000000" font-family="sans-serif" font-size="13" lengthAdjust="spacing" textLength="23" x="74.5" y="80.0566">Pop</text><polygon fill="#181818" points="78.5,94.7988,68.5,98.7988,78.5,102.7988,74.5,98.7988" style="stroke:#181818;stroke-width:1.0;"/><line style="stroke:#181818;stroke-width:1.0;" x1="72.5" x2="180.5" y1="98.7988" y2="98.7988"/><path d="M10,113.7988 L72,113.7988 L72,121.1094 L62,131.1094 L10,131.1094 L10,113.7988 " fill="#EEEEEE" style="stroke:#000000;stroke-width:1.5;"/><rect fill="none" height="1017.0293" style="stroke:#000000;stroke-width:1.5;" width="715.5" x="10" y="113.7988"/><text fill="#000000" font-family="sans-serif" font-size="13" font-weight="bold" lengthAdjust="spacing" textLength="17" x="25" y="127.3672">alt</text><text fill="#000000" font-family="sans-serif" font-size="11" font-weight="bold" lengthAdjust="spacing" textLength="110" x="87" y="126.4336">[resourceSufficient]</text><polygon fill="#181818" points="259.5,148.4199,269.5,152.4199,259.5,156.4199,263.5,152.4199" style="stroke:#181818;stroke-width:1.0;"/><line style="stroke:#181818;stroke-width:1.0;" x1="67.5" x2="265.5" y1="152.4199" y2="152.4199"/><text fill="#000000" font-family="sans-serif" font-size="13" lengthAdjust="spacing" textLength="82" x="74.5" y="147.6777">AfterPreFilter</text><line style="stroke:#181818;stroke-width:1.0;" x1="281.5" x2="328.5" y1="176.7305" y2="176.7305"/><line style="stroke:#181818;stroke-width:1.0;" x1="328.5" x2="328.5" y1="176.7305" y2="189.7305"/><line style="stroke:#181818;stroke-width:1.0;" x1="287.5" x2="328.5" y1="189.7305" y2="189.7305"/><polygon fill="#181818" points="297.5,185.7305,287.5,189.7305,297.5,193.7305,293.5,189.7305" style="stroke:#181818;stroke-width:1.0;"/><text fill="#000000" font-family="sans-serif" font-size="13" lengthAdjust="spacing" textLength="147" x="293.5" y="171.9883">PlanNodesForPodGroup</text><polygon fill="#181818" points="535.5,220.041,545.5,224.041,535.5,228.041,539.5,224.041" style="stroke:#181818;stroke-width:1.0;"/><line style="stroke:#181818;stroke-width:1.0;" x1="286.5" x2="541.5" y1="224.041" y2="224.041"/><text fill="#000000" font-family="sans-serif" font-size="13" lengthAdjust="spacing" textLength="168" x="293.5" y="219.2988">GetAllFeasibleNodeByFilter</text><polygon fill="#181818" points="297.5,234.041,287.5,238.041,297.5,242.041,293.5,238.041" style="stroke:#181818;stroke-width:1.0;"/><line style="stroke:#181818;stroke-width:1.0;" x1="291.5" x2="551.5" y1="238.041" y2="238.041"/><line style="stroke:#181818;stroke-width:1.0;" x1="286.5" x2="328.5" y1="267.3516" y2="267.3516"/><line style="stroke:#181818;stroke-width:1.0;" x1="328.5" x2="328.5" y1="267.3516" y2="280.3516"/><line style="stroke:#181818;stroke-width:1.0;" x1="287.5" x2="328.5" y1="280.3516" y2="280.3516"/><polygon fill="#181818" points="297.5,276.3516,287.5,280.3516,297.5,284.3516,293.5,280.3516" style="stroke:#181818;stroke-width:1.0;"/><text fill="#000000" font-family="sans-serif" font-size="13" lengthAdjust="spacing" textLength="153" x="293.5" y="262.6094">NetworkTopologyGather</text><line style="stroke:#181818;stroke-width:1.0;" x1="286.5" x2="328.5" y1="309.6621" y2="309.6621"/><line style="stroke:#181818;stroke-width:1.0;" x1="328.5" x2="328.5" y1="309.6621" y2="322.6621"/><line style="stroke:#181818;stroke-width:1.0;" x1="287.5" x2="328.5" y1="322.6621" y2="322.6621"/><polygon fill="#181818" points="297.5,318.6621,287.5,322.6621,297.5,326.6621,293.5,322.6621" style="stroke:#181818;stroke-width:1.0;"/><text fill="#000000" font-family="sans-serif" font-size="13" lengthAdjust="spacing" textLength="213" x="293.5" y="304.9199">RecordPlannedNodesForPodGroup</text><polygon fill="#181818" points="78.5,347.9727,68.5,351.9727,78.5,355.9727,74.5,351.9727" style="stroke:#181818;stroke-width:1.0;"/><line style="stroke:#181818;stroke-width:1.0;" x1="72.5" x2="270.5" y1="351.9727" y2="351.9727"/><text fill="#000000" font-family="sans-serif" font-size="13" lengthAdjust="spacing" textLength="82" x="84.5" y="347.2305">PlannedNode</text><line style="stroke:#181818;stroke-width:1.0;" x1="67.5" x2="109.5" y1="381.2832" y2="381.2832"/><line style="stroke:#181818;stroke-width:1.0;" x1="109.5" x2="109.5" y1="381.2832" y2="394.2832"/><line style="stroke:#181818;stroke-width:1.0;" x1="68.5" x2="109.5" y1="394.2832" y2="394.2832"/><polygon fill="#181818" points="78.5,390.2832,68.5,394.2832,78.5,398.2832,74.5,394.2832" style="stroke:#181818;stroke-width:1.0;"/><text fill="#000000" font-family="sans-serif" font-size="13" lengthAdjust="spacing" textLength="100" x="74.5" y="376.541">CheckThatNode</text><line style="stroke:#181818;stroke-width:1.0;" x1="67.5" x2="109.5" y1="423.5938" y2="423.5938"/><line style="stroke:#181818;stroke-width:1.0;" x1="109.5" x2="109.5" y1="423.5938" y2="436.5938"/><line style="stroke:#181818;stroke-width:1.0;" x1="68.5" x2="109.5" y1="436.5938" y2="436.5938"/><polygon fill="#181818" points="78.5,432.5938,68.5,436.5938,78.5,440.5938,74.5,436.5938" style="stroke:#181818;stroke-width:1.0;"/><text fill="#000000" font-family="sans-serif" font-size="13" lengthAdjust="spacing" textLength="48" x="74.5" y="418.8516">Reserve</text><polygon fill="#181818" points="264.5,461.9043,274.5,465.9043,264.5,469.9043,268.5,465.9043" style="stroke:#181818;stroke-width:1.0;"/><line style="stroke:#181818;stroke-width:1.0;" x1="67.5" x2="270.5" y1="465.9043" y2="465.9043"/><text fill="#000000" font-family="sans-serif" font-size="13" lengthAdjust="spacing" textLength="40" x="74.5" y="461.1621">Permit</text><polygon fill="#181818" points="78.5,491.2148,68.5,495.2148,78.5,499.2148,74.5,495.2148" style="stroke:#181818;stroke-width:1.0;"/><line style="stroke:#181818;stroke-width:1.0;" x1="72.5" x2="270.5" y1="495.2148" y2="495.2148"/><text fill="#000000" font-family="sans-serif" font-size="13" lengthAdjust="spacing" textLength="77" x="84.5" y="490.4727">WaitOrAllow</text><line style="stroke:#000000;stroke-width:1.0;stroke-dasharray:2.0,2.0;" x1="10" x2="725.5" y1="504.2148" y2="504.2148"/><text fill="#000000" font-family="sans-serif" font-size="11" font-weight="bold" lengthAdjust="spacing" textLength="121" x="15" y="514.8496">[resourceInsufficient]</text><polygon fill="#181818" points="264.5,535.4805,274.5,539.4805,264.5,543.4805,268.5,539.4805" style="stroke:#181818;stroke-width:1.0;"/><line style="stroke:#181818;stroke-width:1.0;" x1="67.5" x2="270.5" y1="539.4805" y2="539.4805"/><text fill="#000000" font-family="sans-serif" font-size="13" lengthAdjust="spacing" textLength="82" x="74.5" y="534.7383">AfterPreFilter</text><line style="stroke:#181818;stroke-width:1.0;" x1="286.5" x2="333.5" y1="563.791" y2="563.791"/><line style="stroke:#181818;stroke-width:1.0;" x1="333.5" x2="333.5" y1="563.791" y2="576.791"/><line style="stroke:#181818;stroke-width:1.0;" x1="292.5" x2="333.5" y1="576.791" y2="576.791"/><polygon fill="#181818" points="302.5,572.791,292.5,576.791,302.5,580.791,298.5,576.791" style="stroke:#181818;stroke-width:1.0;"/><text fill="#000000" font-family="sans-serif" font-size="13" lengthAdjust="spacing" textLength="147" x="298.5" y="559.0488">PlanNodesForPodGroup</text><polygon fill="#181818" points="535.5,607.1016,545.5,611.1016,535.5,615.1016,539.5,611.1016" style="stroke:#181818;stroke-width:1.0;"/><line style="stroke:#181818;stroke-width:1.0;" x1="291.5" x2="541.5" y1="611.1016" y2="611.1016"/><text fill="#000000" font-family="sans-serif" font-size="13" lengthAdjust="spacing" textLength="168" x="298.5" y="606.3594">GetAllFeasibleNodeByFilter</text><polygon fill="#181818" points="302.5,621.1016,292.5,625.1016,302.5,629.1016,298.5,625.1016" style="stroke:#181818;stroke-width:1.0;"/><line style="stroke:#181818;stroke-width:1.0;" x1="296.5" x2="551.5" y1="625.1016" y2="625.1016"/><line style="stroke:#181818;stroke-width:1.0;" x1="291.5" x2="333.5" y1="654.4121" y2="654.4121"/><line style="stroke:#181818;stroke-width:1.0;" x1="333.5" x2="333.5" y1="654.4121" y2="667.4121"/><line style="stroke:#181818;stroke-width:1.0;" x1="292.5" x2="333.5" y1="667.4121" y2="667.4121"/><polygon fill="#181818" points="302.5,663.4121,292.5,667.4121,302.5,671.4121,298.5,667.4121" style="stroke:#181818;stroke-width:1.0;"/><text fill="#000000" font-family="sans-serif" font-size="13" lengthAdjust="spacing" textLength="153" x="298.5" y="649.6699">NetworkTopologyGather</text><line style="stroke:#181818;stroke-width:1.0;" x1="291.5" x2="333.5" y1="696.7227" y2="696.7227"/><line style="stroke:#181818;stroke-width:1.0;" x1="333.5" x2="333.5" y1="696.7227" y2="709.7227"/><line style="stroke:#181818;stroke-width:1.0;" x1="292.5" x2="333.5" y1="709.7227" y2="709.7227"/><polygon fill="#181818" points="302.5,705.7227,292.5,709.7227,302.5,713.7227,298.5,709.7227" style="stroke:#181818;stroke-width:1.0;"/><text fill="#000000" font-family="sans-serif" font-size="13" lengthAdjust="spacing" textLength="152" x="298.5" y="691.9805">RecordNodeFailedStatus</text><polygon fill="#181818" points="78.5,735.0332,68.5,739.0332,78.5,743.0332,74.5,739.0332" style="stroke:#181818;stroke-width:1.0;"/><line style="stroke:#181818;stroke-width:1.0;" x1="72.5" x2="275.5" y1="739.0332" y2="739.0332"/><text fill="#000000" font-family="sans-serif" font-size="13" lengthAdjust="spacing" textLength="37" x="84.5" y="734.291">Failed</text><polygon fill="#181818" points="269.5,764.3438,279.5,768.3438,269.5,772.3438,273.5,768.3438" style="stroke:#181818;stroke-width:1.0;"/><line style="stroke:#181818;stroke-width:1.0;" x1="67.5" x2="275.5" y1="768.3438" y2="768.3438"/><text fill="#000000" font-family="sans-serif" font-size="13" lengthAdjust="spacing" textLength="59" x="74.5" y="763.6016">PostFilter</text><line style="stroke:#181818;stroke-width:1.0;" x1="291.5" x2="338.5" y1="792.6543" y2="792.6543"/><line style="stroke:#181818;stroke-width:1.0;" x1="338.5" x2="338.5" y1="792.6543" y2="805.6543"/><line style="stroke:#181818;stroke-width:1.0;" x1="297.5" x2="338.5" y1="805.6543" y2="805.6543"/><polygon fill="#181818" points="307.5,801.6543,297.5,805.6543,307.5,809.6543,303.5,805.6543" style="stroke:#181818;stroke-width:1.0;"/><text fill="#000000" font-family="sans-serif" font-size="13" lengthAdjust="spacing" textLength="51" x="303.5" y="787.9121">Preempt</text><polygon fill="#181818" points="653,835.9648,663,839.9648,653,843.9648,657,839.9648" style="stroke:#181818;stroke-width:1.0;"/><line style="stroke:#181818;stroke-width:1.0;" x1="296.5" x2="659" y1="839.9648" y2="839.9648"/><text fill="#000000" font-family="sans-serif" font-size="13" lengthAdjust="spacing" textLength="183" x="303.5" y="835.2227">IsPossible(Preemptor, Victim)</text><polygon fill="#181818" points="307.5,849.9648,297.5,853.9648,307.5,857.9648,303.5,853.9648" style="stroke:#181818;stroke-width:1.0;"/><line style="stroke:#181818;stroke-width:1.0;" x1="301.5" x2="669" y1="853.9648" y2="853.9648"/><line style="stroke:#181818;stroke-width:1.0;" x1="296.5" x2="338.5" y1="883.2754" y2="883.2754"/><line style="stroke:#181818;stroke-width:1.0;" x1="338.5" x2="338.5" y1="883.2754" y2="896.2754"/><line style="stroke:#181818;stroke-width:1.0;" x1="297.5" x2="338.5" y1="896.2754" y2="896.2754"/><polygon fill="#181818" points="307.5,892.2754,297.5,896.2754,307.5,900.2754,303.5,896.2754" style="stroke:#181818;stroke-width:1.0;"/><text fill="#000000" font-family="sans-serif" font-size="13" lengthAdjust="spacing" textLength="158" x="303.5" y="878.5332">RemoveAllPossibleVictim</text><line style="stroke:#181818;stroke-width:1.0;" x1="296.5" x2="338.5" y1="925.5859" y2="925.5859"/><line style="stroke:#181818;stroke-width:1.0;" x1="338.5" x2="338.5" y1="925.5859" y2="938.5859"/><line style="stroke:#181818;stroke-width:1.0;" x1="297.5" x2="338.5" y1="938.5859" y2="938.5859"/><polygon fill="#181818" points="307.5,934.5859,297.5,938.5859,307.5,942.5859,303.5,938.5859" style="stroke:#181818;stroke-width:1.0;"/><text fill="#000000" font-family="sans-serif" font-size="13" lengthAdjust="spacing" textLength="120" x="303.5" y="920.8438">CalculateNodeCost</text><line style="stroke:#181818;stroke-width:1.0;" x1="296.5" x2="343.5" y1="962.8965" y2="962.8965"/><line style="stroke:#181818;stroke-width:1.0;" x1="343.5" x2="343.5" y1="962.8965" y2="975.8965"/><line style="stroke:#181818;stroke-width:1.0;" x1="302.5" x2="343.5" y1="975.8965" y2="975.8965"/><polygon fill="#181818" points="312.5,971.8965,302.5,975.8965,312.5,979.8965,308.5,975.8965" style="stroke:#181818;stroke-width:1.0;"/><text fill="#000000" font-family="sans-serif" font-size="13" lengthAdjust="spacing" textLength="237" x="308.5" y="958.1543">PlanNodesForPodGroupWithNodeCost</text><polygon fill="#181818" points="535.5,1006.207,545.5,1010.207,535.5,1014.207,539.5,1010.207" style="stroke:#181818;stroke-width:1.0;"/><line style="stroke:#181818;stroke-width:1.0;" x1="301.5" x2="541.5" y1="1010.207" y2="1010.207"/><text fill="#000000" font-family="sans-serif" font-size="13" lengthAdjust="spacing" textLength="32" x="308.5" y="1005.4648">Filter</text><polygon fill="#181818" points="307.5,1020.207,297.5,1024.207,307.5,1028.207,303.5,1024.207" style="stroke:#181818;stroke-width:1.0;"/><line style="stroke:#181818;stroke-width:1.0;" x1="301.5" x2="551.5" y1="1024.207" y2="1024.207"/><line style="stroke:#181818;stroke-width:1.0;" x1="296.5" x2="338.5" y1="1053.5176" y2="1053.5176"/><line style="stroke:#181818;stroke-width:1.0;" x1="338.5" x2="338.5" y1="1053.5176" y2="1066.5176"/><line style="stroke:#181818;stroke-width:1.0;" x1="297.5" x2="338.5" y1="1066.5176" y2="1066.5176"/><polygon fill="#181818" points="307.5,1062.5176,297.5,1066.5176,307.5,1070.5176,303.5,1066.5176" style="stroke:#181818;stroke-width:1.0;"/><text fill="#000000" font-family="sans-serif" font-size="13" lengthAdjust="spacing" textLength="135" x="303.5" y="1048.7754">GenerateNodeVictims</text><line style="stroke:#181818;stroke-width:1.0;" x1="296.5" x2="338.5" y1="1100.8281" y2="1100.8281"/><line style="stroke:#181818;stroke-width:1.0;" x1="338.5" x2="338.5" y1="1100.8281" y2="1113.8281"/><line style="stroke:#181818;stroke-width:1.0;" x1="291.5" x2="338.5" y1="1113.8281" y2="1113.8281"/><polygon fill="#181818" points="301.5,1109.8281,291.5,1113.8281,301.5,1117.8281,297.5,1113.8281" style="stroke:#181818;stroke-width:1.0;"/><text fill="#000000" font-family="sans-serif" font-size="13" lengthAdjust="spacing" textLength="116" x="303.5" y="1096.0859">PrepareCandidates</text><polygon fill="#181818" points="78.5,1118.8281,68.5,1122.8281,78.5,1126.8281,74.5,1122.8281" style="stroke:#181818;stroke-width:1.0;"/><line style="stroke:#181818;stroke-width:1.0;" x1="72.5" x2="275.5" y1="1122.8281" y2="1122.8281"/><!--SRC=[xLN1Rjim3BtxAtpiWFK7SXZG1KlGI-iqnNhM9COMgeYkHANetq-ANLjsR0j5WMA7-MI9vDCZ7obnr6HGvPPN89o2Umqvi_4oUt7W_EQ9v0bsaL7gSXTC6MynrjXRWb_9T5aeLqhTkUnRNDFis_YizxtE-PTYbYJVEIGM75_2JmkOnOIlVumvhV82wunnpvaHN30UhIE0SyO2PYCpfYWtOD4P3djtE4WkGLEM-sz4gKz_bTySoETdO2EL_pbxTqT4PGhx_N8CKYYcxr20tQ0fK6mDkdeMQW9hNEXLlWMwKMe3pCe_2WBspxSfYXSInUbsMWxedbqk2zb399Az0tf5y_o8DIeitxQCAiyg4VG078q8TT8W9airNH6lM5FUDcnCVbpNwUPhODOLyEV7Yb47jEJz01RC2LBzKu0vIlf0tmmEUMAIxerN6byNCWDbeMljMst_D_U_sDmXZmsJ2iIU63cRqhxnNP0zMB9a_w6bpybh08xrSWTFG4HN_Yg_jPx6MSoh5WxDz_otz737RqFa-Aa8XcYzhEJWZKdfSSGJ-1PxPzKmIKIjcU9E-QE2aFx5fBdKKyFn9AaQO7piOkZdvAjc8d6dpcU_1GschLXJOvlkjfePM3CjfF2HxK3E3y3i02tTbrhy1G00]--></g></svg>